<svg width="24" height="24" viewBox="0 0 24 24" fill="none" xmlns="http://www.w3.org/2000/svg">
<rect width="24" height="24" rx="7" fill="#23CEC6"/>
<path d="M18 7H14.4C13.7635 7 13.153 7.23413 12.7029 7.65087C12.2529 8.06762 12 8.63285 12 9.22222V17C12 16.558 12.1896 16.134 12.5272 15.8215C12.8648 15.5089 13.3226 15.3333 13.8 15.3333H18V7Z" stroke="#F5F5F5" stroke-linecap="round" stroke-linejoin="round"/>
<path d="M6 7H9.59998C10.2365 7 10.8469 7.23413 11.297 7.65087C11.7471 8.06762 12 8.63285 12 9.22222V17C12 16.558 11.8103 16.134 11.4728 15.8215C11.1352 15.5089 10.6774 15.3333 10.2 15.3333H6V7Z" stroke="#F5F5F5" stroke-linecap="round" stroke-linejoin="round"/>
</svg>
