<svg width="30" height="30" viewBox="0 0 30 30" fill="none" xmlns="http://www.w3.org/2000/svg">
<rect width="30" height="30" rx="8" fill="#3C68E3"/>
<path d="M17.5458 15C17.5458 15.3486 17.5079 15.8522 17.8794 16.0549C18.0756 16.1619 18.367 16.3968 18.4014 16.6375C18.4444 16.9381 18.4531 17.2952 18.2 17.4953C17.8262 17.7909 17.4642 17.8462 17 17.8462" stroke="#E1ECFF" stroke-linecap="round"/>
<rect x="11" y="10" width="1" height="4" rx="0.5" fill="#E1ECFF"/>
<rect x="20" y="10" width="1" height="4" rx="0.5" fill="#E1ECFF"/>
<path d="M13 21C13.3438 21.3012 13.6274 21.5255 14.0636 21.6743C14.3889 21.7853 14.6811 21.8414 15.023 21.8652C15.4345 21.8939 15.8451 21.8925 16.2576 21.8925" stroke="#E1ECFF" stroke-linecap="round"/>
<path d="M10.1035 7.44813C10.7416 7.36241 11.3768 7.34474 12.0214 7.3629C12.344 7.37198 12.6093 7.52467 12.8311 7.74647" stroke="#E1ECFF" stroke-linecap="round"/>
<path d="M19.522 8.08749C19.8924 7.72795 20.4974 7.60398 20.99 7.49082C21.2235 7.43717 21.4577 7.4482 21.6955 7.4482" stroke="#E1ECFF" stroke-linecap="round"/>
</svg>
