<svg width="16" height="16" viewBox="0 0 16 16" fill="none" xmlns="http://www.w3.org/2000/svg">
<circle cx="8" cy="8" r="6" fill="#DEE1E7"/>
<mask id="path-2-inside-1_355_5042" fill="white">
<path fill-rule="evenodd" clip-rule="evenodd" d="M10.5 5.91666L10.0833 5.5L8.00001 7.58328L5.91687 5.50014L5.50021 5.9168L7.58335 7.99995L5.5 10.0833L5.91666 10.5L8.00001 8.41661L10.0835 10.5001L10.5002 10.0834L8.41668 7.99995L10.5 5.91666Z"/>
</mask>
<path fill-rule="evenodd" clip-rule="evenodd" d="M10.5 5.91666L10.0833 5.5L8.00001 7.58328L5.91687 5.50014L5.50021 5.9168L7.58335 7.99995L5.5 10.0833L5.91666 10.5L8.00001 8.41661L10.0835 10.5001L10.5002 10.0834L8.41668 7.99995L10.5 5.91666Z" fill="#C4C4C4"/>
<path d="M10.0833 5.5L10.7904 4.79289L10.0833 4.08579L9.37619 4.79289L10.0833 5.5ZM10.5 5.91666L11.2071 6.62377L11.9142 5.91666L11.2071 5.20956L10.5 5.91666ZM8.00001 7.58328L7.29291 8.29039L8.00001 8.9975L8.70712 8.29039L8.00001 7.58328ZM5.91687 5.50014L6.62398 4.79303L5.91687 4.08593L5.20976 4.79303L5.91687 5.50014ZM5.50021 5.9168L4.7931 5.2097L4.08599 5.9168L4.7931 6.62391L5.50021 5.9168ZM7.58335 7.99995L8.29046 8.70705L8.99756 7.99995L8.29046 7.29284L7.58335 7.99995ZM5.5 10.0833L4.79289 9.37619L4.08579 10.0833L4.79289 10.7904L5.5 10.0833ZM5.91666 10.5L5.20956 11.2071L5.91666 11.9142L6.62377 11.2071L5.91666 10.5ZM8.00001 8.41661L8.70712 7.7095L8.00001 7.0024L7.29291 7.7095L8.00001 8.41661ZM10.0835 10.5001L9.3764 11.2072L10.0835 11.9143L10.7906 11.2072L10.0835 10.5001ZM10.5002 10.0834L11.2073 10.7905L11.9144 10.0834L11.2073 9.37633L10.5002 10.0834ZM8.41668 7.99995L7.70957 7.29284L7.00246 7.99995L7.70957 8.70705L8.41668 7.99995ZM9.37619 6.20711L9.79285 6.62377L11.2071 5.20956L10.7904 4.79289L9.37619 6.20711ZM8.70712 8.29039L10.7904 6.20711L9.37619 4.79289L7.29291 6.87618L8.70712 8.29039ZM5.20976 6.20725L7.29291 8.29039L8.70712 6.87618L6.62398 4.79303L5.20976 6.20725ZM6.20731 6.62391L6.62398 6.20725L5.20976 4.79303L4.7931 5.2097L6.20731 6.62391ZM8.29046 7.29284L6.20731 5.2097L4.7931 6.62391L6.87624 8.70705L8.29046 7.29284ZM6.20711 10.7904L8.29046 8.70705L6.87624 7.29284L4.79289 9.37619L6.20711 10.7904ZM6.62377 9.79285L6.20711 9.37619L4.79289 10.7904L5.20956 11.2071L6.62377 9.79285ZM7.29291 7.7095L5.20956 9.79285L6.62377 11.2071L8.70712 9.12372L7.29291 7.7095ZM10.7906 9.79299L8.70712 7.7095L7.29291 9.12372L9.3764 11.2072L10.7906 9.79299ZM9.79306 9.37633L9.3764 9.79299L10.7906 11.2072L11.2073 10.7905L9.79306 9.37633ZM7.70957 8.70705L9.79306 10.7905L11.2073 9.37633L9.12378 7.29284L7.70957 8.70705ZM9.79285 5.20956L7.70957 7.29284L9.12378 8.70705L11.2071 6.62377L9.79285 5.20956Z" fill="#111418" mask="url(#path-2-inside-1_355_5042)"/>
</svg>
