<svg xmlns="http://www.w3.org/2000/svg" viewBox="0 0 234.198 311.5">
  <defs>
    <style>
      .cls-1 {
        fill: #fff;
      }
    </style>
  </defs>
  <g id="Group_165" data-name="Group 165" transform="translate(-3160.2 -2470.1)">
    <g id="chair_boss_1_" transform="translate(4415.036 1637.691) rotate(135)">
      <g id="Group_64" data-name="Group 64">
        <g id="Group_62" data-name="Group 62">
          <path id="Path_123" data-name="Path 123" class="cls-1" d="M1515.6,140.8,1454,79.1a4.468,4.468,0,0,1,0-6.4h0a4.468,4.468,0,0,1,6.4,0l61.6,61.6a4.468,4.468,0,0,1,0,6.4h0A4.558,4.558,0,0,1,1515.6,140.8Z"/>
          <path id="Path_124" data-name="Path 124" d="M1518.8,143.3a5.835,5.835,0,0,1-4.1-1.7L1453.1,80a5.664,5.664,0,0,1-1.7-4.1,5.835,5.835,0,0,1,1.7-4.1,5.664,5.664,0,0,1,4.1-1.7,5.835,5.835,0,0,1,4.1,1.7l61.6,61.6a5.664,5.664,0,0,1,1.7,4.1,5.835,5.835,0,0,1-1.7,4.1A5.663,5.663,0,0,1,1518.8,143.3Zm-61.6-70.6a3.039,3.039,0,0,0-2.3,1,3.2,3.2,0,0,0,0,4.6l61.6,61.6a3.253,3.253,0,1,0,4.6-4.6l-61.6-61.6A3.194,3.194,0,0,0,1457.2,72.7Z"/>
        </g>
        <g id="Group_63" data-name="Group 63">
          <path id="Path_125" data-name="Path 125" class="cls-1" d="M1521.5,79.6l-60.6,60.6a4.468,4.468,0,0,1-6.4,0h0a4.468,4.468,0,0,1,0-6.4l60.6-60.6a4.468,4.468,0,0,1,6.4,0h0A4.467,4.467,0,0,1,1521.5,79.6Z"/>
          <path id="Path_126" data-name="Path 126" d="M1457.7,142.8a5.835,5.835,0,0,1-4.1-1.7,5.664,5.664,0,0,1-1.7-4.1,5.835,5.835,0,0,1,1.7-4.1l60.6-60.6a5.664,5.664,0,0,1,4.1-1.7,5.835,5.835,0,0,1,4.1,1.7,5.664,5.664,0,0,1,1.7,4.1,5.835,5.835,0,0,1-1.7,4.1l-60.6,60.6A5.835,5.835,0,0,1,1457.7,142.8Zm60.6-69.6a3.039,3.039,0,0,0-2.3,1l-60.6,60.6a3.253,3.253,0,1,0,4.6,4.6l60.6-60.6a3.2,3.2,0,0,0,0-4.6A2.9,2.9,0,0,0,1518.3,73.2Z"/>
        </g>
      </g>
      <g id="Group_70" data-name="Group 70">
        <g id="Group_65" data-name="Group 65">
          <path id="Path_127" data-name="Path 127" class="cls-1" d="M1540.5,86.5c-3.3-42.4-25.5-75.3-52.6-75.3-29.3,0-53,38.5-53,86a139.968,139.968,0,0,0,1.9,22.7,9.45,9.45,0,0,0,7.2,3.3h5.5V61.6a24.5,24.5,0,0,1,24.4-24.4h28.3a24.5,24.5,0,0,1,24.4,24.4v61.6h4.5a9.469,9.469,0,0,0,8.3-4.9c.5-3.4.9-6.8,1.2-10.4V86.5Z"/>
          <path id="Path_128" data-name="Path 128" d="M1531,124.5h-4.5a1.324,1.324,0,0,1-1.3-1.3V61.6a23.11,23.11,0,0,0-23.1-23.1h-28.3a23.11,23.11,0,0,0-23.1,23.1v61.6a1.324,1.324,0,0,1-1.3,1.3h-5.5a10.966,10.966,0,0,1-8.2-3.8l-.3-.6a134.383,134.383,0,0,1-1.9-22.9c0-48.1,24.3-87.3,54.3-87.3,27.3,0,50.5,32.9,53.8,76.4V108c-.3,3.7-.7,7.2-1.2,10.6,0,.1-.1.3-.1.4A10.488,10.488,0,0,1,1531,124.5Zm-3.2-2.5h3.2a8.358,8.358,0,0,0,7.1-4.1c.5-3.2.9-6.6,1.1-10V86.6c-3.2-42.2-25.3-74.1-51.3-74.1-28.5,0-51.8,38-51.8,84.8a135.4,135.4,0,0,0,1.8,22.1,8.1,8.1,0,0,0,6,2.6h4.3V61.6A25.649,25.649,0,0,1,1473.8,36h28.3a25.649,25.649,0,0,1,25.6,25.6V122Z"/>
        </g>
        <g id="Group_66" data-name="Group 66">
          <path id="Path_129" data-name="Path 129" class="cls-1" d="M1527.4,29.3a45.092,45.092,0,0,0-3.8-19.1c-3.1-6.9-22-8.9-35.7-8.9-13.8,0-32.4,2-35.7,8.9-2.4,5.1-3.8,11.4-3.8,19.1,0,26.7,16.5,48.5,37.3,49.9.7,0,1.5.1,2.2.1a16.2,16.2,0,0,0,2.2-.1C1510.9,77.7,1527.4,55.9,1527.4,29.3Z"/>
          <path id="Path_130" data-name="Path 130" d="M1487.9,80.5a16.951,16.951,0,0,1-2.3-.1c-21.6-1.5-38.5-24-38.5-51.2,0-7.5,1.3-14.1,3.9-19.6,4.3-9,29.3-9.7,36.9-9.7s32.8.7,36.9,9.7c2.6,5.5,3.9,12.1,3.9,19.6,0,27.2-16.9,49.7-38.5,51.2A16.952,16.952,0,0,1,1487.9,80.5Zm0-78c-14.1,0-31.7,2.2-34.6,8.2-2.4,5.1-3.6,11.4-3.6,18.5,0,25.9,15.9,47.3,36.1,48.7a29.437,29.437,0,0,0,4.2,0c20.3-1.4,36.1-22.8,36.1-48.7,0-7.1-1.2-13.4-3.6-18.5C1519.8,4.6,1502.2,2.5,1487.9,2.5Z"/>
        </g>
        <g id="Group_67" data-name="Group 67">
          <path id="Path_131" data-name="Path 131" class="cls-1" d="M1459,130.3h58a9.56,9.56,0,0,0,9.5-9.5V111l-2.2-49.9a70.008,70.008,0,0,0-72.6.7l-2.2,49.3v9.8A9.54,9.54,0,0,0,1459,130.3Z"/>
          <path id="Path_132" data-name="Path 132" d="M1517,131.5h-58a10.819,10.819,0,0,1-10.8-10.8V111l2.2-49.3a1.1,1.1,0,0,1,.6-1,70.809,70.809,0,0,1,37.4-10.6,71.962,71.962,0,0,1,36.4,10,1.1,1.1,0,0,1,.6,1l2.2,49.9v9.8A10.5,10.5,0,0,1,1517,131.5Zm-64.1-69.1-2.2,48.6v9.7a8.344,8.344,0,0,0,8.3,8.3h58a8.344,8.344,0,0,0,8.3-8.3V111l-2.2-49.2a68.985,68.985,0,0,0-70.2.6Z"/>
        </g>
        <g id="Group_68" data-name="Group 68">
          <path id="Path_133" data-name="Path 133" d="M1521,19a.9.9,0,0,1-.5-.1c-8.4-3.7-20.3-5.9-32.6-5.9s-24.2,2.1-32.6,5.9a1.275,1.275,0,0,1-1.1-2.3c8.8-3.9,20.7-6.1,33.6-6.1,12.8,0,24.8,2.2,33.6,6.1a1.287,1.287,0,0,1,.6,1.7A.993.993,0,0,1,1521,19Z"/>
        </g>
        <g id="Group_69" data-name="Group 69">
          <path id="Path_134" data-name="Path 134" d="M1511.4,106a1.324,1.324,0,0,1-1.3-1.3c0-21.2-9.6-37.3-22.3-37.3s-22.3,16-22.3,37.3a1.3,1.3,0,0,1-2.6,0c0-23,10.4-39.8,24.8-39.8s24.8,16.7,24.8,39.8A1.062,1.062,0,0,1,1511.4,106Z"/>
        </g>
      </g>
    </g>
    <g id="Group_163" data-name="Group 163" transform="translate(2424 2390.1)">
      <path id="Path_65" data-name="Path 65" class="cls-1" d="M751.2,81.3H899.9A13.786,13.786,0,0,1,913.6,95v37.7c-.1,6.6-1.5,29.7-14,56.6-6.9,14.9-18.7,30.1-33,46-13.9,15.5-23.1,35.2-28,56-7.4,31.7-6,63-6,63v22.3a13.721,13.721,0,0,1-13.7,13.7H751.2a13.786,13.786,0,0,1-13.7-13.7V94.9A13.636,13.636,0,0,1,751.2,81.3Z"/>
      <path id="Path_66" data-name="Path 66" d="M818.8,391.5H751.1a14.937,14.937,0,0,1-14.9-14.9V94.9A14.937,14.937,0,0,1,751.1,80H899.8a14.937,14.937,0,0,1,14.9,14.9v37.7c-.1,6.5-1.5,29.9-14.1,57.2-6.2,13.4-16.4,27.6-33.2,46.3-13,14.5-22.6,33.7-27.7,55.5-7.3,31.1-6,62.3-6,62.7v22.4A14.788,14.788,0,0,1,818.8,391.5Zm-67.6-309a12.462,12.462,0,0,0-12.4,12.4V376.6A12.462,12.462,0,0,0,751.2,389h67.7a12.462,12.462,0,0,0,12.4-12.4V354.3c0-.3-1.3-31.8,6-63.3,5.2-22.1,15-41.7,28.3-56.5,16.6-18.5,26.7-32.6,32.8-45.7,12.4-26.8,13.8-49.7,13.9-56.1V94.9a12.462,12.462,0,0,0-12.4-12.4Z"/>
    </g>
    <g id="phone_1_" transform="translate(2839.952 4457.052) rotate(-90)">
      <g id="Group_25" data-name="Group 25">
        <path id="Path_67" data-name="Path 67" class="cls-1" d="M1836.6,393.3h-38.3a2.9,2.9,0,0,1-2.9-2.9V366.6a2.9,2.9,0,0,1,2.9-2.9h38.3a2.9,2.9,0,0,1,2.9,2.9v23.8A2.9,2.9,0,0,1,1836.6,393.3Z"/>
        <path id="Path_68" data-name="Path 68" d="M1836.6,394.5h-38.3a4.118,4.118,0,0,1-4.1-4.1V366.6a4.118,4.118,0,0,1,4.1-4.1h38.3a4.118,4.118,0,0,1,4.1,4.1v23.8A4.054,4.054,0,0,1,1836.6,394.5Zm-38.2-29.6a1.58,1.58,0,0,0-1.6,1.6v23.8a1.58,1.58,0,0,0,1.6,1.6h38.3a1.58,1.58,0,0,0,1.6-1.6V366.5a1.58,1.58,0,0,0-1.6-1.6Z"/>
      </g>
      <g id="Group_26" data-name="Group 26">
        <path id="Path_69" data-name="Path 69" d="M1831,378.1h-11.3a3.8,3.8,0,0,1-3.8-3.8v-4.1a3.8,3.8,0,0,1,3.8-3.8H1831a3.8,3.8,0,0,1,3.8,3.8v4.1A3.8,3.8,0,0,1,1831,378.1Zm-11.3-9.2a1.324,1.324,0,0,0-1.3,1.3v4.1a1.324,1.324,0,0,0,1.3,1.3H1831a1.324,1.324,0,0,0,1.3-1.3v-4.1a1.324,1.324,0,0,0-1.3-1.3Z"/>
      </g>
      <g id="Group_27" data-name="Group 27">
        <path id="Path_70" data-name="Path 70" d="M1820.8,381.9h-.7a1.5,1.5,0,0,1,0-3h.7a1.5,1.5,0,0,1,0,3Zm-.7-1.9a.5.5,0,0,0,0,1h.7a.5.5,0,0,0,0-1Z"/>
      </g>
      <g id="Group_28" data-name="Group 28">
        <path id="Path_71" data-name="Path 71" d="M1826,381.9h-.7a1.5,1.5,0,0,1,0-3h.7a1.538,1.538,0,0,1,1.5,1.5A1.473,1.473,0,0,1,1826,381.9Zm-.6-1.9a.5.5,0,0,0,0,1h.7a.5.5,0,0,0,0-1Z"/>
      </g>
      <g id="Group_29" data-name="Group 29">
        <path id="Path_72" data-name="Path 72" d="M1831.3,381.9h-.7a1.5,1.5,0,0,1,0-3h.7a1.5,1.5,0,0,1,0,3Zm-.7-1.9a.5.5,0,0,0,0,1h.7a.5.5,0,0,0,0-1Z"/>
      </g>
      <g id="Group_30" data-name="Group 30">
        <path id="Path_73" data-name="Path 73" d="M1820.8,385.9h-.7a1.5,1.5,0,0,1,0-3h.7a1.5,1.5,0,0,1,0,3Zm-.7-2a.5.5,0,0,0,0,1h.7a.5.5,0,0,0,0-1Z"/>
      </g>
      <g id="Group_31" data-name="Group 31">
        <path id="Path_74" data-name="Path 74" d="M1826,385.9h-.7a1.5,1.5,0,0,1,0-3h.7a1.538,1.538,0,0,1,1.5,1.5A1.473,1.473,0,0,1,1826,385.9Zm-.6-2a.5.5,0,0,0,0,1h.7a.5.5,0,0,0,0-1Z"/>
      </g>
      <g id="Group_32" data-name="Group 32">
        <path id="Path_75" data-name="Path 75" d="M1831.3,385.9h-.7a1.5,1.5,0,0,1,0-3h.7a1.5,1.5,0,0,1,0,3Zm-.7-2a.5.5,0,0,0,0,1h.7a.5.5,0,0,0,0-1Z"/>
      </g>
      <g id="Group_33" data-name="Group 33">
        <path id="Path_76" data-name="Path 76" d="M1820.8,389.8h-.7a1.5,1.5,0,0,1,0-3h.7a1.5,1.5,0,0,1,0,3Zm-.7-2a.5.5,0,0,0,0,1h.7a.5.5,0,0,0,0-1Z"/>
      </g>
      <g id="Group_34" data-name="Group 34">
        <path id="Path_77" data-name="Path 77" d="M1826,389.8h-.7a1.5,1.5,0,0,1,0-3h.7a1.538,1.538,0,0,1,1.5,1.5A1.473,1.473,0,0,1,1826,389.8Zm-.6-2a.5.5,0,0,0,0,1h.7a.5.5,0,0,0,0-1Z"/>
      </g>
      <g id="Group_35" data-name="Group 35">
        <path id="Path_78" data-name="Path 78" d="M1831.3,389.8h-.7a1.5,1.5,0,0,1,0-3h.7a1.5,1.5,0,0,1,0,3Zm-.7-2a.5.5,0,0,0,0,1h.7a.5.5,0,0,0,0-1Z"/>
      </g>
      <g id="Group_36" data-name="Group 36">
        <path id="Path_79" data-name="Path 79" class="cls-1" d="M1806.3,388h0a4.332,4.332,0,0,1-4.3-4.3V364a4.332,4.332,0,0,1,4.3-4.3h0a4.332,4.332,0,0,1,4.3,4.3v19.7A4.268,4.268,0,0,1,1806.3,388Z"/>
        <path id="Path_80" data-name="Path 80" d="M1806.3,389.2a5.549,5.549,0,0,1-5.5-5.5V364a5.5,5.5,0,0,1,11,0v19.7A5.422,5.422,0,0,1,1806.3,389.2Zm0-28.2a3.009,3.009,0,0,0-3,3v19.7a3.009,3.009,0,0,0,3,3,3.076,3.076,0,0,0,3-3V364A3.009,3.009,0,0,0,1806.3,361Z"/>
      </g>
    </g>
    <g id="Computer_1_" transform="translate(4656.676 1450.209) rotate(135)">
      <g id="Group_5" data-name="Group 5">
        <rect id="Rectangle_5" data-name="Rectangle 5" class="cls-1" width="19" height="6" transform="translate(1770.9 268.3)"/>
        <path id="Path_37" data-name="Path 37" d="M1789.9,275.5h-19a1.324,1.324,0,0,1-1.3-1.3v-6a1.324,1.324,0,0,1,1.3-1.3h19a1.324,1.324,0,0,1,1.3,1.3v6A1.324,1.324,0,0,1,1789.9,275.5Zm-17.7-2.5h16.5v-3.5h-16.5Z"/>
      </g>
      <g id="Group_6" data-name="Group 6">
        <circle id="Ellipse_3" data-name="Ellipse 3" class="cls-1" cx="25.5" cy="25.5" r="25.5" transform="translate(1754.9 235.3)"/>
        <path id="Path_38" data-name="Path 38" d="M1780.4,287.5a26.8,26.8,0,1,1,26.8-26.8A26.8,26.8,0,0,1,1780.4,287.5Zm0-51a24.3,24.3,0,1,0,24.3,24.3A24.326,24.326,0,0,0,1780.4,236.5Z"/>
      </g>
      <g id="Group_7" data-name="Group 7">
        <rect id="Rectangle_6" data-name="Rectangle 6" class="cls-1" width="117" height="9" transform="translate(1721.9 250.3)"/>
        <path id="Path_39" data-name="Path 39" d="M1838.9,260.5h-117a1.324,1.324,0,0,1-1.3-1.3v-9a1.324,1.324,0,0,1,1.3-1.3h117a1.324,1.324,0,0,1,1.3,1.3v9A1.324,1.324,0,0,1,1838.9,260.5ZM1723.2,258h114.5v-6.5H1723.2Z"/>
      </g>
      <g id="Group_8" data-name="Group 8">
        <path id="Path_40" data-name="Path 40" class="cls-1" d="M1815.9,268.3h-71l-6-9h83Z"/>
        <path id="Path_41" data-name="Path 41" d="M1815.9,269.5h-71a1.1,1.1,0,0,1-1-.6l-6-9a1.267,1.267,0,0,1,1-2h83a1.267,1.267,0,0,1,1,2l-6,9A1.1,1.1,0,0,1,1815.9,269.5Zm-70.3-2.5h69.7l4.3-6.5h-78.3Z"/>
      </g>
      <g id="Group_9" data-name="Group 9">
        <path id="Path_42" data-name="Path 42" class="cls-1" d="M1830.9,244.3h-101l-8,6h117Z"/>
        <path id="Path_43" data-name="Path 43" d="M1838.9,251.5h-117a1.257,1.257,0,0,1-1.2-.9,1.237,1.237,0,0,1,.4-1.4l8-6a1.135,1.135,0,0,1,.8-.3h101a1.33,1.33,0,0,1,.8.3l8,6a1.237,1.237,0,0,1,.4,1.4A1.257,1.257,0,0,1,1838.9,251.5ZM1725.7,249h109.5l-4.7-3.5H1730.3Z"/>
      </g>
    </g>
  </g>
</svg>
