<svg xmlns="http://www.w3.org/2000/svg" viewBox="0 0 197.27 311.5">
  <defs>
    <style>
      .cls-1 {
        fill: #fff;
      }
    </style>
  </defs>
  <g id="Group_168" data-name="Group 168" transform="translate(-3995.431 -2087.1)">
    <g id="chair_1_" transform="translate(5200.978 3609.522) rotate(-135)">
      <g id="Group_14" data-name="Group 14">
        <rect id="Rectangle_7" data-name="Rectangle 7" class="cls-1" width="14" height="11" transform="translate(1773 126.3)"/>
        <path id="Path_50" data-name="Path 50" d="M1787,138.5h-14a1.324,1.324,0,0,1-1.3-1.3v-11a1.324,1.324,0,0,1,1.3-1.3h14a1.324,1.324,0,0,1,1.3,1.3v11A1.324,1.324,0,0,1,1787,138.5Zm-12.7-2.5h11.5v-8.5h-11.5Z"/>
      </g>
      <g id="Group_15" data-name="Group 15">
        <ellipse id="Ellipse_6" data-name="Ellipse 6" class="cls-1" cx="33.5" cy="11" rx="33.5" ry="11" transform="translate(1746.5 111.3)"/>
        <path id="Path_51" data-name="Path 51" d="M1780,134.5c-16.8,0-34.8-4.3-34.8-12.3s17.9-12.3,34.8-12.3,34.8,4.3,34.8,12.3S1796.8,134.5,1780,134.5Zm0-22c-19,0-32.3,5.1-32.3,9.8s13.2,9.8,32.3,9.8,32.3-5.1,32.3-9.8S1799,112.5,1780,112.5Z"/>
      </g>
      <g id="Group_16" data-name="Group 16">
        <path id="Path_52" data-name="Path 52" d="M1811.5,127.5a1.324,1.324,0,0,1-1.3-1.3c0-4.6-12.4-9.8-30.3-9.8s-30.3,5.1-30.3,9.8a1.3,1.3,0,0,1-2.6,0c0-8,16.9-12.3,32.8-12.3s32.8,4.3,32.8,12.3A1.062,1.062,0,0,1,1811.5,127.5Z"/>
      </g>
      <g id="Group_19" data-name="Group 19">
        <g id="Group_17" data-name="Group 17">
          <path id="Path_53" data-name="Path 53" class="cls-1" d="M1807.6,197.8,1746,136.2a4.468,4.468,0,0,1,0-6.4h0a4.468,4.468,0,0,1,6.4,0l61.6,61.6a4.468,4.468,0,0,1,0,6.4h0A4.653,4.653,0,0,1,1807.6,197.8Z"/>
          <path id="Path_54" data-name="Path 54" d="M1810.8,200.3a5.835,5.835,0,0,1-4.1-1.7L1745.1,137a5.664,5.664,0,0,1-1.7-4.1,5.835,5.835,0,0,1,1.7-4.1,5.664,5.664,0,0,1,4.1-1.7,5.835,5.835,0,0,1,4.1,1.7l61.6,61.6a5.664,5.664,0,0,1,1.7,4.1,5.835,5.835,0,0,1-1.7,4.1A5.664,5.664,0,0,1,1810.8,200.3Zm-61.6-70.6a3.039,3.039,0,0,0-2.3,1,3.2,3.2,0,0,0,0,4.6l61.6,61.6a3.253,3.253,0,1,0,4.6-4.6l-61.6-61.6A3.194,3.194,0,0,0,1749.2,129.7Z"/>
        </g>
        <g id="Group_18" data-name="Group 18">
          <path id="Path_55" data-name="Path 55" class="cls-1" d="M1813.5,136.6l-60.6,60.6a4.468,4.468,0,0,1-6.4,0h0a4.468,4.468,0,0,1,0-6.4l60.6-60.6a4.468,4.468,0,0,1,6.4,0h0A4.467,4.467,0,0,1,1813.5,136.6Z"/>
          <path id="Path_56" data-name="Path 56" d="M1749.7,199.8a5.835,5.835,0,0,1-4.1-1.7,5.664,5.664,0,0,1-1.7-4.1,5.835,5.835,0,0,1,1.7-4.1l60.6-60.6a5.664,5.664,0,0,1,4.1-1.7,5.835,5.835,0,0,1,4.1,1.7,5.664,5.664,0,0,1,1.7,4.1,5.835,5.835,0,0,1-1.7,4.1l-60.6,60.6A5.835,5.835,0,0,1,1749.7,199.8Zm60.6-69.6a3.039,3.039,0,0,0-2.3,1l-60.6,60.6a3.253,3.253,0,1,0,4.6,4.6l60.6-60.6a3.2,3.2,0,0,0,0-4.6A2.9,2.9,0,0,0,1810.3,130.2Z"/>
        </g>
      </g>
      <g id="Group_20" data-name="Group 20">
        <path id="Path_57" data-name="Path 57" class="cls-1" d="M1800.5,190.3h-41a12.035,12.035,0,0,1-12-12v-29a12.035,12.035,0,0,1,12-12h41a12.035,12.035,0,0,1,12,12v29A12.035,12.035,0,0,1,1800.5,190.3Z"/>
        <path id="Path_58" data-name="Path 58" d="M1800.5,191.5h-41a13.294,13.294,0,0,1-13.3-13.3v-29a13.294,13.294,0,0,1,13.3-13.3h41a13.294,13.294,0,0,1,13.3,13.3v29A13.294,13.294,0,0,1,1800.5,191.5Zm-41-53a10.819,10.819,0,0,0-10.8,10.8v29a10.819,10.819,0,0,0,10.8,10.8h41a10.819,10.819,0,0,0,10.8-10.8v-29a10.819,10.819,0,0,0-10.8-10.8Z"/>
      </g>
      <g id="Group_21" data-name="Group 21">
        <path id="Path_59" data-name="Path 59" class="cls-1" d="M1738.5,184.7v-42a4.481,4.481,0,0,1,4.5-4.5h0a4.481,4.481,0,0,1,4.5,4.5v42a4.481,4.481,0,0,1-4.5,4.5h0A4.481,4.481,0,0,1,1738.5,184.7Z"/>
        <path id="Path_60" data-name="Path 60" d="M1743,190.5a5.8,5.8,0,0,1-5.8-5.8v-42a5.8,5.8,0,0,1,11.6,0v42A5.8,5.8,0,0,1,1743,190.5Zm0-51a3.329,3.329,0,0,0-3.3,3.3v42a3.3,3.3,0,0,0,6.6,0v-42A3.329,3.329,0,0,0,1743,139.5Z"/>
      </g>
      <g id="Group_22" data-name="Group 22">
        <path id="Path_61" data-name="Path 61" class="cls-1" d="M1812.5,184.7v-42a4.481,4.481,0,0,1,4.5-4.5h0a4.481,4.481,0,0,1,4.5,4.5v42a4.481,4.481,0,0,1-4.5,4.5h0A4.481,4.481,0,0,1,1812.5,184.7Z"/>
        <path id="Path_62" data-name="Path 62" d="M1817,190.5a5.8,5.8,0,0,1-5.8-5.8v-42a5.8,5.8,0,0,1,11.6,0v42A5.8,5.8,0,0,1,1817,190.5Zm0-51a3.329,3.329,0,0,0-3.3,3.3v42a3.3,3.3,0,0,0,6.6,0v-42A3.329,3.329,0,0,0,1817,139.5Z"/>
      </g>
    </g>
    <g id="Group_23" data-name="Group 23" transform="translate(2981 2007.1)">
      <path id="Path_63" data-name="Path 63" class="cls-1" d="M1196.8,81.3H1048.1A13.786,13.786,0,0,0,1034.4,95v37.7c.1,6.6,1.5,29.7,14,56.6,6.9,14.9,18.7,30.1,33,46,13.9,15.5,23.1,35.2,28,56,7.4,31.7,6,63,6,63v22.3a13.721,13.721,0,0,0,13.7,13.7h67.7a13.786,13.786,0,0,0,13.7-13.7V94.9A13.636,13.636,0,0,0,1196.8,81.3Z"/>
      <path id="Path_64" data-name="Path 64" d="M1196.8,391.5h-67.7a14.937,14.937,0,0,1-14.9-14.9V354.3c0-.4,1.3-31.6-6-62.7-5.1-21.7-14.7-40.9-27.7-55.5-16.8-18.7-27-33-33.2-46.3-12.6-27.2-14-50.6-14.1-57.1V94.9A14.937,14.937,0,0,1,1048.1,80h148.7a14.937,14.937,0,0,1,14.9,14.9V376.6A14.81,14.81,0,0,1,1196.8,391.5Zm-148.6-309a12.462,12.462,0,0,0-12.4,12.4v37.7c.1,6.4,1.4,29.3,13.9,56.1,6.1,13.1,16.2,27.2,32.8,45.7,13.3,14.8,23.1,34.4,28.3,56.5,7.4,31.5,6,63,6,63.3v22.3a12.462,12.462,0,0,0,12.4,12.4h67.7a12.462,12.462,0,0,0,12.4-12.4V94.9a12.462,12.462,0,0,0-12.4-12.4Z"/>
    </g>
    <g id="phone_1_" transform="translate(4523.952 439.148) rotate(90)">
      <g id="Group_25" data-name="Group 25">
        <path id="Path_67" data-name="Path 67" class="cls-1" d="M1836.6,393.3h-38.3a2.9,2.9,0,0,1-2.9-2.9V366.6a2.9,2.9,0,0,1,2.9-2.9h38.3a2.9,2.9,0,0,1,2.9,2.9v23.8A2.9,2.9,0,0,1,1836.6,393.3Z"/>
        <path id="Path_68" data-name="Path 68" d="M1836.6,394.5h-38.3a4.118,4.118,0,0,1-4.1-4.1V366.6a4.118,4.118,0,0,1,4.1-4.1h38.3a4.118,4.118,0,0,1,4.1,4.1v23.8A4.054,4.054,0,0,1,1836.6,394.5Zm-38.2-29.6a1.58,1.58,0,0,0-1.6,1.6v23.8a1.58,1.58,0,0,0,1.6,1.6h38.3a1.58,1.58,0,0,0,1.6-1.6V366.5a1.58,1.58,0,0,0-1.6-1.6Z"/>
      </g>
      <g id="Group_26" data-name="Group 26">
        <path id="Path_69" data-name="Path 69" d="M1831,378.1h-11.3a3.8,3.8,0,0,1-3.8-3.8v-4.1a3.8,3.8,0,0,1,3.8-3.8H1831a3.8,3.8,0,0,1,3.8,3.8v4.1A3.8,3.8,0,0,1,1831,378.1Zm-11.3-9.2a1.324,1.324,0,0,0-1.3,1.3v4.1a1.324,1.324,0,0,0,1.3,1.3H1831a1.324,1.324,0,0,0,1.3-1.3v-4.1a1.324,1.324,0,0,0-1.3-1.3Z"/>
      </g>
      <g id="Group_27" data-name="Group 27">
        <path id="Path_70" data-name="Path 70" d="M1820.8,381.9h-.7a1.5,1.5,0,0,1,0-3h.7a1.5,1.5,0,0,1,0,3Zm-.7-1.9a.5.5,0,0,0,0,1h.7a.5.5,0,0,0,0-1Z"/>
      </g>
      <g id="Group_28" data-name="Group 28">
        <path id="Path_71" data-name="Path 71" d="M1826,381.9h-.7a1.5,1.5,0,0,1,0-3h.7a1.538,1.538,0,0,1,1.5,1.5A1.473,1.473,0,0,1,1826,381.9Zm-.6-1.9a.5.5,0,0,0,0,1h.7a.5.5,0,0,0,0-1Z"/>
      </g>
      <g id="Group_29" data-name="Group 29">
        <path id="Path_72" data-name="Path 72" d="M1831.3,381.9h-.7a1.5,1.5,0,0,1,0-3h.7a1.5,1.5,0,0,1,0,3Zm-.7-1.9a.5.5,0,0,0,0,1h.7a.5.5,0,0,0,0-1Z"/>
      </g>
      <g id="Group_30" data-name="Group 30">
        <path id="Path_73" data-name="Path 73" d="M1820.8,385.9h-.7a1.5,1.5,0,0,1,0-3h.7a1.5,1.5,0,0,1,0,3Zm-.7-2a.5.5,0,0,0,0,1h.7a.5.5,0,0,0,0-1Z"/>
      </g>
      <g id="Group_31" data-name="Group 31">
        <path id="Path_74" data-name="Path 74" d="M1826,385.9h-.7a1.5,1.5,0,0,1,0-3h.7a1.538,1.538,0,0,1,1.5,1.5A1.473,1.473,0,0,1,1826,385.9Zm-.6-2a.5.5,0,0,0,0,1h.7a.5.5,0,0,0,0-1Z"/>
      </g>
      <g id="Group_32" data-name="Group 32">
        <path id="Path_75" data-name="Path 75" d="M1831.3,385.9h-.7a1.5,1.5,0,0,1,0-3h.7a1.5,1.5,0,0,1,0,3Zm-.7-2a.5.5,0,0,0,0,1h.7a.5.5,0,0,0,0-1Z"/>
      </g>
      <g id="Group_33" data-name="Group 33">
        <path id="Path_76" data-name="Path 76" d="M1820.8,389.8h-.7a1.5,1.5,0,0,1,0-3h.7a1.5,1.5,0,0,1,0,3Zm-.7-2a.5.5,0,0,0,0,1h.7a.5.5,0,0,0,0-1Z"/>
      </g>
      <g id="Group_34" data-name="Group 34">
        <path id="Path_77" data-name="Path 77" d="M1826,389.8h-.7a1.5,1.5,0,0,1,0-3h.7a1.538,1.538,0,0,1,1.5,1.5A1.473,1.473,0,0,1,1826,389.8Zm-.6-2a.5.5,0,0,0,0,1h.7a.5.5,0,0,0,0-1Z"/>
      </g>
      <g id="Group_35" data-name="Group 35">
        <path id="Path_78" data-name="Path 78" d="M1831.3,389.8h-.7a1.5,1.5,0,0,1,0-3h.7a1.5,1.5,0,0,1,0,3Zm-.7-2a.5.5,0,0,0,0,1h.7a.5.5,0,0,0,0-1Z"/>
      </g>
      <g id="Group_36" data-name="Group 36">
        <path id="Path_79" data-name="Path 79" class="cls-1" d="M1806.3,388h0a4.332,4.332,0,0,1-4.3-4.3V364a4.332,4.332,0,0,1,4.3-4.3h0a4.332,4.332,0,0,1,4.3,4.3v19.7A4.268,4.268,0,0,1,1806.3,388Z"/>
        <path id="Path_80" data-name="Path 80" d="M1806.3,389.2a5.549,5.549,0,0,1-5.5-5.5V364a5.5,5.5,0,0,1,11,0v19.7A5.422,5.422,0,0,1,1806.3,389.2Zm0-28.2a3.009,3.009,0,0,0-3,3v19.7a3.009,3.009,0,0,0,3,3,3.076,3.076,0,0,0,3-3V364A3.009,3.009,0,0,0,1806.3,361Z"/>
      </g>
    </g>
    <g id="Computer_1_" transform="translate(5213.99 3585.075) rotate(-135)">
      <g id="Group_5" data-name="Group 5">
        <rect id="Rectangle_5" data-name="Rectangle 5" class="cls-1" width="19" height="6" transform="translate(1770.9 268.3)"/>
        <path id="Path_37" data-name="Path 37" d="M1789.9,275.5h-19a1.324,1.324,0,0,1-1.3-1.3v-6a1.324,1.324,0,0,1,1.3-1.3h19a1.324,1.324,0,0,1,1.3,1.3v6A1.324,1.324,0,0,1,1789.9,275.5Zm-17.7-2.5h16.5v-3.5h-16.5Z"/>
      </g>
      <g id="Group_6" data-name="Group 6">
        <circle id="Ellipse_3" data-name="Ellipse 3" class="cls-1" cx="25.5" cy="25.5" r="25.5" transform="translate(1754.9 235.3)"/>
        <path id="Path_38" data-name="Path 38" d="M1780.4,287.5a26.8,26.8,0,1,1,26.8-26.8A26.8,26.8,0,0,1,1780.4,287.5Zm0-51a24.3,24.3,0,1,0,24.3,24.3A24.326,24.326,0,0,0,1780.4,236.5Z"/>
      </g>
      <g id="Group_7" data-name="Group 7">
        <rect id="Rectangle_6" data-name="Rectangle 6" class="cls-1" width="117" height="9" transform="translate(1721.9 250.3)"/>
        <path id="Path_39" data-name="Path 39" d="M1838.9,260.5h-117a1.324,1.324,0,0,1-1.3-1.3v-9a1.324,1.324,0,0,1,1.3-1.3h117a1.324,1.324,0,0,1,1.3,1.3v9A1.324,1.324,0,0,1,1838.9,260.5ZM1723.2,258h114.5v-6.5H1723.2Z"/>
      </g>
      <g id="Group_8" data-name="Group 8">
        <path id="Path_40" data-name="Path 40" class="cls-1" d="M1815.9,268.3h-71l-6-9h83Z"/>
        <path id="Path_41" data-name="Path 41" d="M1815.9,269.5h-71a1.1,1.1,0,0,1-1-.6l-6-9a1.267,1.267,0,0,1,1-2h83a1.267,1.267,0,0,1,1,2l-6,9A1.1,1.1,0,0,1,1815.9,269.5Zm-70.3-2.5h69.7l4.3-6.5h-78.3Z"/>
      </g>
      <g id="Group_9" data-name="Group 9">
        <path id="Path_42" data-name="Path 42" class="cls-1" d="M1830.9,244.3h-101l-8,6h117Z"/>
        <path id="Path_43" data-name="Path 43" d="M1838.9,251.5h-117a1.257,1.257,0,0,1-1.2-.9,1.237,1.237,0,0,1,.4-1.4l8-6a1.135,1.135,0,0,1,.8-.3h101a1.33,1.33,0,0,1,.8.3l8,6a1.237,1.237,0,0,1,.4,1.4A1.257,1.257,0,0,1,1838.9,251.5ZM1725.7,249h109.5l-4.7-3.5H1730.3Z"/>
      </g>
    </g>
  </g>
</svg>
