<svg id="Layer_1" data-name="Layer 1" xmlns="http://www.w3.org/2000/svg" viewBox="0 0 46.51 36"><defs><style>.cls-1{fill:rgba(235, 102, 0, 1);}.cls-1,.cls-2,.cls-3{stroke:#000;stroke-linecap:round;stroke-linejoin:round;}.cls-1,.cls-2{stroke-width:2.5px;}.cls-2,.cls-3{fill:none;}</style></defs><title>items</title><g id="phone"><rect class="cls-1" x="1.25" y="5.19" width="44.01" height="29.56" rx="2.88" ry="2.88"/><rect class="cls-2" x="22.93" y="9.13" width="16.42" height="9.2" rx="2.54" ry="2.54"/><rect class="cls-3" x="24.9" y="20.96" width="2.63" height="1.97" rx="0.99" ry="0.99"/><rect class="cls-3" x="30.15" y="20.96" width="2.63" height="1.97" rx="0.99" ry="0.99"/><rect class="cls-3" x="35.41" y="20.96" width="2.63" height="1.97" rx="0.99" ry="0.99"/><rect class="cls-3" x="24.9" y="24.9" width="2.63" height="1.97" rx="0.99" ry="0.99"/><rect class="cls-3" x="30.15" y="24.9" width="2.63" height="1.97" rx="0.99" ry="0.99"/><rect class="cls-3" x="35.41" y="24.9" width="2.63" height="1.97" rx="0.99" ry="0.99"/><rect class="cls-3" x="24.9" y="28.84" width="2.63" height="1.97" rx="0.99" ry="0.99"/><rect class="cls-3" x="30.15" y="28.84" width="2.63" height="1.97" rx="0.99" ry="0.99"/><rect class="cls-3" x="35.41" y="28.84" width="2.63" height="1.97" rx="0.99" ry="0.99"/><rect class="cls-1" x="7.82" y="1.25" width="8.54" height="28.25" rx="4.27" ry="4.27"/></g></svg>
