<svg id="Layer_1" data-name="Layer 1" xmlns="http://www.w3.org/2000/svg" viewBox="0 0 93.5 93.5"><defs><style>.cls-1,.cls-2{fill:#fff;stroke:#000;stroke-linecap:round;stroke-linejoin:round;}.cls-1{stroke-width:2.5px;}.cls-2{stroke-width:2px;}</style></defs><title>items</title><rect class="cls-1" x="1.25" y="1.25" width="91" height="91" rx="7.17" ry="7.17"/><g id="watter"><circle class="cls-2" cx="46.75" cy="46.75" r="33"/><path class="cls-2" d="M56,56.25a9,9,0,0,1-18,0c0-5,9-24,9-24S56,51.28,56,56.25Z"/><path class="cls-2" d="M38.5,42A5.25,5.25,0,0,1,28,42c0-2.9,5.25-14,5.25-14S38.5,39.1,38.5,42Z"/><path class="cls-2" d="M65.5,42A5.25,5.25,0,0,1,55,42c0-2.9,5.25-14,5.25-14S65.5,39.1,65.5,42Z"/></g></svg>