<svg width="16" height="16" viewBox="0 0 16 16" fill="none" xmlns="http://www.w3.org/2000/svg">
<path d="M7.99996 9.99984C8.7072 9.99984 9.38548 9.71889 9.88558 9.21879C10.3857 8.71869 10.6666 8.04041 10.6666 7.33317V3.33317C10.6666 2.62593 10.3857 1.94765 9.88558 1.44755C9.38548 0.947455 8.7072 0.666504 7.99996 0.666504C7.29272 0.666504 6.61444 0.947455 6.11434 1.44755C5.61424 1.94765 5.33329 2.62593 5.33329 3.33317V7.33317C5.33329 8.04041 5.61424 8.71869 6.11434 9.21879C6.61444 9.71889 7.29272 9.99984 7.99996 9.99984ZM6.66663 3.33317C6.66663 2.97955 6.8071 2.64041 7.05715 2.39036C7.3072 2.14031 7.64634 1.99984 7.99996 1.99984C8.35358 1.99984 8.69272 2.14031 8.94277 2.39036C9.19282 2.64041 9.33329 2.97955 9.33329 3.33317V7.33317C9.33329 7.68679 9.19282 8.02593 8.94277 8.27598C8.69272 8.52603 8.35358 8.6665 7.99996 8.6665C7.64634 8.6665 7.3072 8.52603 7.05715 8.27598C6.8071 8.02593 6.66663 7.68679 6.66663 7.33317V3.33317ZM13.3333 7.33317C13.3333 7.15636 13.2631 6.98679 13.138 6.86177C13.013 6.73674 12.8434 6.6665 12.6666 6.6665C12.4898 6.6665 12.3202 6.73674 12.1952 6.86177C12.0702 6.98679 12 7.15636 12 7.33317C12 8.39404 11.5785 9.41145 10.8284 10.1616C10.0782 10.9117 9.06082 11.3332 7.99996 11.3332C6.93909 11.3332 5.92168 10.9117 5.17153 10.1616C4.42139 9.41145 3.99996 8.39404 3.99996 7.33317C3.99996 7.15636 3.92972 6.98679 3.8047 6.86177C3.67967 6.73674 3.5101 6.6665 3.33329 6.6665C3.15648 6.6665 2.98691 6.73674 2.86189 6.86177C2.73686 6.98679 2.66663 7.15636 2.66663 7.33317C2.6678 8.63137 3.14244 9.88456 4.00156 10.8578C4.86067 11.8311 6.04528 12.4576 7.33329 12.6198V13.9998H5.99996C5.82315 13.9998 5.65358 14.0701 5.52855 14.1951C5.40353 14.3201 5.33329 14.4897 5.33329 14.6665C5.33329 14.8433 5.40353 15.0129 5.52855 15.1379C5.65358 15.2629 5.82315 15.3332 5.99996 15.3332H9.99996C10.1768 15.3332 10.3463 15.2629 10.4714 15.1379C10.5964 15.0129 10.6666 14.8433 10.6666 14.6665C10.6666 14.4897 10.5964 14.3201 10.4714 14.1951C10.3463 14.0701 10.1768 13.9998 9.99996 13.9998H8.66663V12.6198C9.95464 12.4576 11.1392 11.8311 11.9984 10.8578C12.8575 9.88456 13.3321 8.63137 13.3333 7.33317Z" fill="#8A93A4"/>
</svg>
