<svg width="16" height="16" viewBox="0 0 16 16" fill="none" xmlns="http://www.w3.org/2000/svg">
<g clip-path="url(#clip0_184_1838)">
<path fill-rule="evenodd" clip-rule="evenodd" d="M6.85513 3.18997C7.39081 2.35664 8.60894 2.35664 9.14462 3.18997L13.8981 10.5846C14.4803 11.4903 13.83 12.6813 12.7533 12.6813L3.24643 12.6813C2.16977 12.6813 1.5195 11.4903 2.10168 10.5846L6.85513 3.18997ZM8.38146 3.68055C8.2029 3.40277 7.79686 3.40277 7.6183 3.68055L2.86485 11.0752C2.67078 11.3771 2.88754 11.7741 3.24643 11.7741L12.7533 11.7741C13.1122 11.7741 13.329 11.3771 13.1349 11.0752L8.38146 3.68055Z" fill="#FF0000"/>
<rect x="7.54626" y="5.87695" width="0.907241" height="2.72172" fill="#FF0000"/>
<rect x="7.54626" y="9.50586" width="0.907241" height="0.907241" fill="#FF0000"/>
</g>
<defs>
<clipPath id="clip0_184_1838">
<rect width="16" height="16" fill="white"/>
</clipPath>
</defs>
</svg>
