<svg id="Layer_1" data-name="Layer 1" xmlns="http://www.w3.org/2000/svg" viewBox="0 0 108.08 143.31"><defs><style>.cls-1{fill:#fff;}.cls-1,.cls-2{stroke:#000;stroke-linecap:round;stroke-linejoin:round;stroke-width:2.5px;}.cls-2{fill:none;}</style></defs><title>items</title><g id="chair_boss" data-name="chair boss"><rect class="cls-1" x="6.24" y="102.25" width="96.17" height="9" rx="4.5" ry="4.5" transform="translate(91.4 -7.15) rotate(45)"/><rect class="cls-1" x="6.95" y="102.25" width="94.75" height="9" rx="4.5" ry="4.5" transform="translate(-59.57 69.68) rotate(-45)"/><path class="cls-1" d="M106.83,86.54C103.58,44.1,81.29,11.25,54.25,11.25c-29.27,0-53,38.5-53,86a136.92,136.92,0,0,0,1.87,22.67,9.48,9.48,0,0,0,7.2,3.33h5.52V61.63A24.45,24.45,0,0,1,40.23,37.25H68.48A24.45,24.45,0,0,1,92.85,61.63v61.63h4.48a9.52,9.52,0,0,0,8.31-4.92c.52-3.38.92-6.84,1.19-10.37Z"/><path class="cls-1" d="M93.75,29.25c0-7.62-1.35-13.93-3.76-19.07C86.85,3.25,68,1.25,54.25,1.25s-32.4,2-35.74,8.93c-2.41,5.14-3.76,11.44-3.76,19.07,0,26.68,16.51,48.47,37.3,49.92.73,0,1.46.08,2.2.08s1.47,0,2.2-.08C77.24,77.72,93.75,55.93,93.75,29.25Z"/><path class="cls-1" d="M25.33,130.25h58a9.53,9.53,0,0,0,9.5-9.5V111L90.58,61.1A69.88,69.88,0,0,0,18,61.71L15.83,111v9.75A9.53,9.53,0,0,0,25.33,130.25Z"/><path class="cls-2" d="M21.17,17.75c8.27-3.69,20-6,33.08-6s24.81,2.31,33.08,6"/><path class="cls-2" d="M30.75,104.75c0-22.92,10.52-38.5,23.5-38.5s23.5,15.58,23.5,38.5"/></g></svg>