<svg id="Layer_1" data-name="Layer 1" xmlns="http://www.w3.org/2000/svg" viewBox="0 0 77.5 85.5"><defs><style>.cls-1{fill:#fff;}.cls-1,.cls-2{stroke:#000;stroke-linecap:round;stroke-linejoin:round;stroke-width:2.5px;}.cls-2{fill:none;}</style></defs><title>items</title><g id="customerchair"><path class="cls-1" d="M76.25,61.75v-38a22.57,22.57,0,0,0-22.5-22.5h-11a41.62,41.62,0,0,0-41.5,41.5h0a41.62,41.62,0,0,0,41.5,41.5h11A22.57,22.57,0,0,0,76.25,61.75Z"/><path class="cls-2" d="M53.08,1.25a3.18,3.18,0,0,1,3.17,3.17V9.08a3.18,3.18,0,0,1-3.17,3.17"/><path class="cls-2" d="M53.08,73.25a3.18,3.18,0,0,1,3.17,3.17v4.67a3.18,3.18,0,0,1-3.17,3.17"/><path class="cls-2" d="M53.25,1.25h-9.5a41.62,41.62,0,0,0-41.5,41.5h0a41.62,41.62,0,0,0,41.5,41.5h9.5"/><path class="cls-2" d="M53.25,12.25h-8.5a30.59,30.59,0,0,0-30.5,30.5h0a30.59,30.59,0,0,0,30.5,30.5h8.5"/></g></svg>