<svg id="Layer_1" data-name="Layer 1" xmlns="http://www.w3.org/2000/svg" viewBox="0 0 85.5 90.31"><defs><style>.cls-1{fill:#fff;}.cls-1,.cls-2{stroke:#000;stroke-linecap:round;stroke-linejoin:round;stroke-width:2.5px;}.cls-2{fill:none;}</style></defs><title>items</title><g id="chair"><rect class="cls-1" x="35.75" y="16.25" width="14" height="11"/><ellipse class="cls-1" cx="42.75" cy="12.25" rx="33.5" ry="11"/><path class="cls-2" d="M11.25,16.25c0-6.08,14.1-11,31.5-11s31.5,4.92,31.5,11"/><rect class="cls-1" x="-5.33" y="49.25" width="96.17" height="9" rx="4.5" ry="4.5" transform="translate(50.53 -14.49) rotate(45)"/><rect class="cls-1" x="-4.63" y="49.25" width="94.75" height="9" rx="4.5" ry="4.5" transform="translate(-25.49 45.97) rotate(-45)"/><rect class="cls-1" x="10.25" y="27.25" width="65" height="53" rx="12" ry="12"/><rect class="cls-1" x="-19.75" y="49.25" width="51" height="9" rx="4.5" ry="4.5" transform="matrix(0, 1, -1, 0, 59.5, 48)"/><rect class="cls-1" x="54.25" y="49.25" width="51" height="9" rx="4.5" ry="4.5" transform="translate(133.5 -26) rotate(90)"/></g></svg>