<svg id="Layer_1" data-name="Layer 1" xmlns="http://www.w3.org/2000/svg" viewBox="0 0 372 250.5"><defs><style>.cls-1{fill:#fff;}.cls-1,.cls-2{stroke:#000;stroke-linecap:round;stroke-linejoin:round;stroke-width:2.5px;}.cls-2{fill:none;}</style></defs><title>items</title><g id="conercouch"><rect class="cls-1" x="146.75" y="121.25" width="96" height="122" rx="12" ry="12" transform="translate(377 -12.5) rotate(90)"/><rect class="cls-1" x="25.25" y="121.25" width="96" height="122" rx="12" ry="12" transform="translate(255.5 109) rotate(90)"/><rect class="cls-1" x="128.84" y="101.22" width="24" height="252.06" rx="12" ry="12" transform="translate(368.09 86.41) rotate(90)"/><rect class="cls-1" x="-27.25" y="183.75" width="83" height="26" rx="7.81" ry="7.81" transform="translate(211 182.5) rotate(90)"/><rect class="cls-1" x="255.75" y="12.25" width="96" height="122" rx="12" ry="12"/><rect class="cls-1" x="336.75" y="14.37" width="24" height="132.57" rx="12" ry="12"/><rect class="cls-1" x="276.75" y="1.25" width="83" height="26" rx="7.81" ry="7.81"/><path class="cls-1" d="M254.5,147V248.37A105.6,105.6,0,0,0,266,249,104.5,104.5,0,0,0,370.5,144.5c0-3.2-.15-6.37-.43-9.5H266.5A12,12,0,0,0,254.5,147Z"/><path class="cls-2" d="M370.5,143a106,106,0,0,1-106,106"/><path class="cls-2" d="M344.5,140.5A82.5,82.5,0,0,1,262,223"/><path class="cls-2" d="M336.5,133.5A81.5,81.5,0,0,1,255,215"/><rect class="cls-1" x="344.75" y="13.25" width="26" height="134.25" rx="8.69" ry="8.69"/><rect class="cls-1" x="128.38" y="108.63" width="26" height="255.25" rx="8.69" ry="8.69" transform="translate(377.63 94.88) rotate(90)"/></g></svg>