<svg width="16" height="16" viewBox="0 0 16 16" fill="none" xmlns="http://www.w3.org/2000/svg">
<path d="M8.28671 2.73352C8.17844 2.68668 8.05969 2.66941 7.94257 2.68346C7.82545 2.69751 7.71415 2.74239 7.62004 2.81352L4.43337 5.33352H2.00004C1.82323 5.33352 1.65366 5.40376 1.52864 5.52878C1.40361 5.6538 1.33337 5.82337 1.33337 6.00018V10.0002C1.33337 10.177 1.40361 10.3466 1.52864 10.4716C1.65366 10.5966 1.82323 10.6669 2.00004 10.6669H4.43337L7.58671 13.1869C7.704 13.281 7.84966 13.3326 8.00004 13.3335C8.09962 13.3352 8.19807 13.3123 8.28671 13.2669C8.40016 13.2128 8.49602 13.1278 8.56326 13.0217C8.63049 12.9155 8.66635 12.7925 8.66671 12.6669V3.33352C8.66635 3.20786 8.63049 3.08486 8.56326 2.9787C8.49602 2.87255 8.40016 2.78755 8.28671 2.73352ZM7.33337 11.2802L5.08004 9.48018C4.96275 9.38608 4.81708 9.33439 4.66671 9.33352H2.66671V6.66685H4.66671C4.81708 6.66598 4.96275 6.61429 5.08004 6.52018L7.33337 4.72018V11.2802ZM13.1067 4.22685C12.9812 4.10131 12.8109 4.03079 12.6334 4.03079C12.4558 4.03079 12.2856 4.10131 12.16 4.22685C12.0345 4.35239 11.964 4.52265 11.964 4.70018C11.964 4.87772 12.0345 5.04798 12.16 5.17352C12.5526 5.56548 12.8594 6.03481 13.0608 6.55169C13.2622 7.06857 13.3539 7.62169 13.3301 8.17593C13.3063 8.73016 13.1674 9.27338 12.9224 9.77106C12.6774 10.2688 12.3315 10.71 11.9067 11.0669C11.8036 11.1551 11.7298 11.2726 11.6952 11.4039C11.6607 11.5352 11.667 11.6738 11.7134 11.8014C11.7598 11.9289 11.844 12.0393 11.9548 12.1177C12.0656 12.1961 12.1977 12.2388 12.3334 12.2402C12.4891 12.2405 12.6401 12.1862 12.76 12.0869C13.3273 11.6117 13.7895 11.0237 14.1173 10.3603C14.445 9.69682 14.6311 8.97243 14.6637 8.23317C14.6963 7.4939 14.5747 6.75594 14.3067 6.06621C14.0386 5.37649 13.63 4.75009 13.1067 4.22685ZM11.22 6.11352C11.1579 6.05136 11.0841 6.00205 11.0029 5.96841C10.9217 5.93477 10.8346 5.91746 10.7467 5.91746C10.6588 5.91746 10.5718 5.93477 10.4905 5.96841C10.4093 6.00205 10.3355 6.05136 10.2734 6.11352C10.2112 6.17568 10.1619 6.24947 10.1283 6.33068C10.0946 6.4119 10.0773 6.49894 10.0773 6.58685C10.0773 6.67476 10.0946 6.7618 10.1283 6.84302C10.1619 6.92423 10.2112 6.99802 10.2734 7.06018C10.5238 7.30908 10.6652 7.64713 10.6667 8.00018C10.6669 8.19442 10.6246 8.38634 10.5428 8.56252C10.4611 8.73871 10.3418 8.8949 10.1934 9.02018C10.1259 9.07615 10.0701 9.14488 10.0292 9.22245C9.98826 9.30001 9.96307 9.38489 9.95502 9.4722C9.94697 9.55952 9.95622 9.64757 9.98225 9.73131C10.0083 9.81504 10.0506 9.89282 10.1067 9.96018C10.1631 10.0272 10.2322 10.0824 10.31 10.1227C10.3878 10.163 10.4728 10.1876 10.5601 10.195C10.6474 10.2025 10.7353 10.1926 10.8188 10.166C10.9023 10.1395 10.9798 10.0967 11.0467 10.0402C11.3448 9.79026 11.5846 9.47815 11.7493 9.12574C11.9139 8.77334 11.9995 8.38917 12 8.00018C11.9963 7.29359 11.7163 6.61648 11.22 6.11352Z" fill="#8A93A4"/>
</svg>
