<svg width="70" height="39" viewBox="0 0 70 39" fill="none" xmlns="http://www.w3.org/2000/svg">
<path d="M3 19H26.5C26.7761 19 27 19.2239 27 19.5V22.5C27 23.3284 27.6716 24 28.5 24H43C43.8284 24 44.5 23.3284 44.5 22.5V19.5C44.5 19.2239 44.7239 19 45 19H67V34.5C67 35.3284 66.3284 36 65.5 36H4.5C3.67157 36 3 35.3284 3 34.5V19ZM66.691 18H45C44.1716 18 43.5 18.6716 43.5 19.5V22.5C43.5 22.7761 43.2761 23 43 23H28.5C28.2239 23 28 22.7761 28 22.5V19.5C28 18.6716 27.3284 18 26.5 18H3.30902L10.3944 3.82918C10.6485 3.321 11.1679 3 11.7361 3H58.2639C58.8321 3 59.3515 3.321 59.6056 3.82918L66.691 18Z" stroke="#8A93A4"/>
</svg>
