<svg width="24" height="24" viewBox="0 0 24 24" fill="none" xmlns="http://www.w3.org/2000/svg">
<rect width="24" height="24" rx="7" fill="#DEE1E7"/>
<path d="M12.8167 6.17363C12.7638 6.11861 12.7009 6.07494 12.6315 6.04514C12.5621 6.01534 12.4877 6 12.4126 6C12.3374 6 12.263 6.01534 12.1937 6.04514C12.1243 6.07494 12.0613 6.11861 12.0084 6.17363L7.7676 10.5526L5.98588 8.70944C5.93093 8.65471 5.86607 8.61167 5.795 8.58279C5.72393 8.55391 5.64804 8.53974 5.57166 8.54111C5.49527 8.54247 5.4199 8.55933 5.34984 8.59073C5.27978 8.62213 5.2164 8.66746 5.16333 8.72411C5.11025 8.78077 5.06852 8.84765 5.04051 8.92094C5.0125 8.99423 4.99877 9.07249 5.00009 9.15126C5.00141 9.23002 5.01776 9.30774 5.04821 9.37999C5.07866 9.45223 5.12261 9.51759 5.17756 9.57232L7.36344 11.8264C7.41635 11.8814 7.47931 11.9251 7.54868 11.9549C7.61805 11.9847 7.69245 12 7.7676 12C7.84274 12 7.91714 11.9847 7.98651 11.9549C8.05588 11.9251 8.11884 11.8814 8.17175 11.8264L12.8167 7.03651C12.8745 6.98154 12.9206 6.91483 12.9522 6.84058C12.9837 6.76632 13 6.68614 13 6.60507C13 6.52401 12.9837 6.44382 12.9522 6.36957C12.9206 6.29531 12.8745 6.2286 12.8167 6.17363V6.17363Z" fill="#111418"/>
<rect x="13" y="11" width="6" height="1" fill="#111418"/>
<rect x="7" y="14" width="12" height="1" fill="#111418"/>
<rect x="7" y="17" width="12" height="1" fill="#111418"/>
</svg>
